<svg xmlns="http://www.w3.org/2000/svg" viewBox="0 0 184.973 184.973"><path d="M184.973 84.619c0-23.498-40.628-41.893-92.486-41.893S0 61.128 0 84.619a2.984 2.984 0 005.966 0c0-19.476 39.626-35.927 86.52-35.927s86.52 16.457 86.52 35.927c0 19.321-39.041 35.658-85.475 35.903l10.627-10.615a2.985 2.985 0 000-4.219 2.996 2.996 0 00-4.219 0l-17.853 17.841 17.853 17.847a2.947 2.947 0 002.112.871c.77 0 1.533-.292 2.112-.871a2.985 2.985 0 000-4.219l-10.675-10.669c51.37-.25 91.485-18.532 91.485-41.869z" fill="#010002"/></svg>